<svg width="245" height="249" viewBox="0 0 245 249" fill="none" xmlns="http://www.w3.org/2000/svg">
<path d="M15.3125 94.4125C15.3125 66.8124 15.3125 53.0124 20.5975 42.4705C25.2464 33.1977 32.6644 25.6586 41.7883 20.9338C52.1608 15.5625 65.7391 15.5625 92.8958 15.5625H152.104C179.261 15.5625 192.839 15.5625 203.212 20.9338C212.336 25.6586 219.754 33.1977 224.402 42.4705C229.688 53.0124 229.688 66.8124 229.688 94.4125V154.588C229.688 182.188 229.688 195.988 224.402 206.529C219.754 215.802 212.336 223.341 203.212 228.066C192.839 233.438 179.261 233.438 152.104 233.438H92.8958C65.7391 233.438 52.1608 233.438 41.7883 228.066C32.6644 223.341 25.2464 215.802 20.5975 206.529C15.3125 195.988 15.3125 182.188 15.3125 154.588V94.4125Z" fill="#001E36"/>
<path d="M127.895 176.013H71.2339C70.2748 176.013 69.7955 175.463 69.796 174.364V79.1734C69.6899 78.3991 70.3475 77.7136 71.0904 77.8243H88.6353C89.2131 77.7394 89.7222 78.281 89.6419 78.8738V157.125H130.915C131.778 157.125 132.114 157.574 131.922 158.474L129.333 174.663C129.311 175.479 128.653 176.004 127.895 176.013Z" fill="#31A8FF"/>
<path d="M142.29 101.405H157.966C158.83 101.412 159.606 102.035 159.835 102.904C160.984 105.563 161.125 108.769 161.129 111.639C163.817 108.377 167.059 105.658 170.692 103.62C174.589 101.321 179.007 100.156 183.483 100.247C184.226 100.136 184.884 100.821 184.778 101.596V119.734C184.778 120.435 184.297 120.784 183.34 120.784C176.705 120.306 166.375 121.941 161.554 127.38V174.543C161.554 175.442 161.17 175.892 160.403 175.892H143.584C142.758 176.015 142.029 175.24 142.146 174.393V123.182C142.146 116.32 142.289 109.252 141.283 102.454C141.129 101.829 141.703 101.247 142.29 101.405Z" fill="#31A8FF"/>
</svg>
